<svg xmlns="http://www.w3.org/2000/svg" version="1.1" xmlns:xlink="http://www.w3.org/1999/xlink" xmlns:svgjs="http://svgjs.dev/svgjs" width="128" height="128" viewBox="0 0 128 128"><g transform="matrix(0.8046875,0,0,0.8046875,12.760752631578946,12.760752631578946)"><svg viewBox="0 0 95 95" data-background-color="#000934" preserveAspectRatio="xMidYMid meet" height="128" width="128" xmlns="http://www.w3.org/2000/svg" xmlns:xlink="http://www.w3.org/1999/xlink"><g id="tight-bounds" transform="matrix(1,0,0,1,-0.24049999999999727,-0.24049999999999727)"><svg viewBox="0 0 95.481 95.481" height="95.481" width="95.481"><g><svg viewBox="0 0 95.481 95.481" height="95.481" width="95.481"><g><svg viewBox="0 0 95.481 95.481" height="95.481" width="95.481"><g id="textblocktransform"><svg viewBox="0 0 95.481 95.481" height="95.481" width="95.481" id="textblock"><g><svg viewBox="0 0 95.481 95.481" height="95.481" width="95.481"><g><svg viewBox="0 0 95.481 95.481" height="95.481" width="95.481"><g><svg xmlns="http://www.w3.org/2000/svg" viewBox="0 0 64 64" x="0" y="0" height="95.481" width="95.481" class="icon-icon-0" data-fill-palette-color="accent" id="icon-0"><g data-name="Layer 26" fill="#ec0ffe" data-fill-palette-color="accent"><path d="M56 41a1.13 1.13 0 0 1-0.56-0.52l-4.91-10-4.26-1a1.06 1.06 0 0 1-0.8-0.78L42.86 18.19s0 0 0 0L40.76 9.82 34.3 8.1 30.87 9.27a1.07 1.07 0 1 1-0.69-2L33.92 6a1 1 0 0 1 0.62 0l7.38 2a1 1 0 0 1 0.76 0.77l2 7.81 3.73-1.37 2.56-4.82-0.52-1.85A1 1 0 0 1 50 9L47.6 10.6v2.58a1.07 1.07 0 1 1-2.14 0V10.29l-2-3.82L33.34 0 25.83 6.34 18.55 29a1.07 1.07 0 0 1-1.24 0.72L14.06 29 7.31 36.63 5.59 46.06a1 1 0 0 1-0.3 0.57L0 51.84V64l64 0V44.16Zm-40.7-4.44L13.66 43.4l1.07 7.85a1.15 1.15 0 0 1 0 0.37l-2.2 10.12a1.06 1.06 0 0 1-1 0.84l-0.23 0a1.07 1.07 0 0 1-0.82-1.27l2.16-9.93-1.07-7.86a0.86 0.86 0 0 1 0-0.39L13.24 36a1.08 1.08 0 0 1 1.3-0.79A1.07 1.07 0 0 1 15.32 36.51Zm29.57-4a3.69 3.69 0 0 1-3.07 1.64H38.53a0.88 0.88 0 0 1-0.28-0.06l0 0.16a1.05 1.05 0 0 1-0.28 0.53l-4 4.14 2.2 7.76a1.06 1.06 0 0 1-0.44 1.18 1 1 0 0 1-0.59 0.18 1.08 1.08 0 0 1-0.66-0.23l-10-7.91a1.07 1.07 0 0 1-0.26-1.38L25.62 36V33.82l-0.73 0.27a0.94 0.94 0 0 1-0.37 0.07H22.16a3.7 3.7 0 0 1-3.43-5.08L24.79 14a1.05 1.05 0 0 1 1.31-0.62L32 15.21l5.75-2a1.07 1.07 0 0 1 1.33 0.61l6.19 15.2A3.7 3.7 0 0 1 44.89 32.52Zm8.86 30.05h0a1.07 1.07 0 0 1-1.07-1l-0.58-12.43-2.58-6.25a1.07 1.07 0 0 1 2-0.82l2.66 6.43a1.05 1.05 0 0 1 0.08 0.36l0.59 12.61A1.07 1.07 0 0 1 53.75 62.57ZM32.34 17.34l3.08-1c1.54 1.36 3.68 4.08 3.68 5.24 0 3.58-0.51 5.5-1.07 6.53L35 25.35a1.07 1.07 0 0 0-0.72-0.28H29.44a1.12 1.12 0 0 0-0.7 0.26l-2.46 2.13a0.61 0.61 0 0 0-0.07 0.1 13.52 13.52 0 0 1-1.6-6.71c0-1.05 2.47-3.23 3.4-4.05l0.49-0.43 3.18 1A1 1 0 0 0 32.34 17.34ZM24.33 32H22.16a1.57 1.57 0 0 1-1.45-2.14l2.14-5.31a10.52 10.52 0 0 0 2.77 5.64v1.33Zm11.85 1.51l0.72-3.6-3-2.72h-4L27.75 29v7.25a1 1 0 0 1-0.14 0.54l-1.16 2 6.72 5.3-1.46-5.18a1.07 1.07 0 0 1 0.26-1Zm-6.32-1.66a1.07 1.07 0 0 1 0-2.14h3.91a1.07 1.07 0 1 1 0 2.14Zm13.26-0.54a1.55 1.55 0 0 1-1.3 0.69H38.74l-0.07 0L39 30.31l0 0c1.11-1.13 1.79-3 2.06-5.74l2.17 5.32A1.55 1.55 0 0 1 43.12 31.33Z" fill="#ec0ffe" data-fill-palette-color="accent"></path></g></svg></g></svg></g></svg></g></svg></g></svg></g><g></g></svg></g><defs></defs></svg><rect width="95.481" height="95.481" fill="none" stroke="none" visibility="hidden"></rect></g></svg></g></svg>