<svg xmlns="http://www.w3.org/2000/svg" version="1.1" xmlns:xlink="http://www.w3.org/1999/xlink" xmlns:svgjs="http://svgjs.dev/svgjs" width="128" height="128" viewBox="0 0 128 128"><g transform="matrix(0.5175879396984925,0,0,0.5175879396984925,30.788976328267275,12.760752631578946)"><svg viewBox="0 0 61 95" data-background-color="#001f3f" preserveAspectRatio="xMidYMid meet" height="199" width="128" xmlns="http://www.w3.org/2000/svg" xmlns:xlink="http://www.w3.org/1999/xlink"><g id="tight-bounds" transform="matrix(1,0,0,1,0.07862684702392642,-0.24049999999999727)"><svg viewBox="0 0 60.84274630595214 95.481" height="95.481" width="60.84274630595214"><g><svg viewBox="0 0 60.84274630595214 95.481" height="95.481" width="60.84274630595214"><g><svg viewBox="0 0 60.84274630595214 95.481" height="95.481" width="60.84274630595214"><g id="textblocktransform"><svg viewBox="0 0 60.84274630595214 95.481" height="95.481" width="60.84274630595214" id="textblock"><g><svg viewBox="0 0 60.84274630595214 95.481" height="95.481" width="60.84274630595214"><g><svg viewBox="0 0 60.84274630595214 95.481" height="95.481" width="60.84274630595214"><g><svg xmlns="http://www.w3.org/2000/svg" xmlns:xlink="http://www.w3.org/1999/xlink" xml:space="preserve" version="1.1" style="shape-rendering:geometricPrecision;text-rendering:geometricPrecision;image-rendering:optimizeQuality;" viewBox="11405.318234181996 817.3753131452274 37193.864999839134 58368.624686854775" x="0" y="0" fill-rule="evenodd" clip-rule="evenodd" height="95.481" width="60.84274630595214" class="icon-icon-0" data-fill-palette-color="accent" id="icon-0"><g fill="#f500bd" data-fill-palette-color="accent"><path class="" d="M37088 26729c-13-210 146-391 356-404 210-13 391 146 404 356 15 231 42 547 72 899 80 944 183 2145 174 3400 1362-2990 384-5068-652-7264-119-252-238-505-355-762-7-13-13-27-19-42-478-1050-913-2152-1096-3412-98 278-194 668-298 1096-306 1256-674 2763-1846 3371-156 87-358 53-476-89-348-418-617-909-885-1401-477-873-954-1747-1820-1967-142-31-260-142-293-293-107-502-48-1089 11-1677 95-943 190-1886-568-2037l0-1c-5-1-10-2-15-3-49-12-97-24-145-36-736-87-1329-10-1801 185 796 781 943 1596 1079 2350 18 100 36 199 57 304 85 19 170 44 254 75 337 123 661 338 935 653 269 309 491 715 629 1226 220 810 230 1891-117 3276 17 18 31 38 42 62 652 1386 1022 3052 981 4651-37 1451-412 2849-1220 3943-78 105-227 128-332 49-50-37-82-91-92-148l0-2 0 0-369-2017c-405 1074-877 2055-1382 2928-911 1577-1933 2809-2867 3618-99 86-249 75-335-24-56-65-71-152-46-229l0 0c187-574 390-1154 593-1735 524-1497 1048-2994 1371-4655-438 566-911 972-1336 1154-9 4-19 8-29 11l-2 0-4 1-3 1-1 0-5 1-1 0c-13 3-26 5-39 6l0 0-5 0-2 0-4 0-3 0-3 0c-41 0-82-11-119-33-5-3-9-6-14-9l-1-1-4-3-1-1-4-3 0 0-4-3 0 0c-38-30-65-71-78-116l0-2-1-4-1-3-1-2-1-5 0-1c-3-13-5-26-6-39l0 0 0-5 0-2 0-4 0-3 0-3c0-41 11-82 33-119 594-1016 1096-2125 1366-3362 235-1078 293-2256 82-3559-301 493-609 1134-875 2060-36 127-168 200-294 164-127-36-200-168-164-294 214-745 307-1711 400-2690 42-433 83-869 136-1292-109-29-204-105-252-216-337-767-558-2077-406-3337 81-671 268-1336 599-1910 342-592 832-1082 1513-1381 114-50 234-95 358-133-1356-627-2178-1436-2999-2245-537-528-1073-1057-1763-1520-690-249-1175-32-1487 357-210 262-354 600-436 936-82 338-102 668-64 917 2 14 3 27 3 39 1238-1112 1917-1313 2283-926 404 428 155 1534-145 2860-339 1500-749 3317-359 4313 320 818 212 1000-126 1572-50 85-107 181-168 291-281 509-594 943-941 1357-306 364-641 715-1006 1088 21 40 41 80 61 121 75 154 135 293 194 431 165 387 330 774 586 932 179 110 234 344 124 523-110 179-344 234-523 124-277-171-465-418-616-697 43 278 25 488-37 647 37 51 62 112 70 180 103 850-39 1379-320 1710l269 13599c100-131 197-266 290-406 242-364 459-755 643-1177 84-193 308-281 501-197 193 84 281 308 197 501-203 466-441 896-705 1294-266 399-559 766-873 1103-9 10-19 19-29 28l239 12078c1568 783 2821-180 3978-1068 605-465 1186-911 1812-1140l0 0c15-6 31-10 48-14 1500-334 2843 13 4186 360 616 159 1232 318 1849 404 3570-776 4490-1184 4398-1607-47-216-323-522-656-891-262-290-554-613-813-975-1469-2049-1569-6643-1680-11763-101-4630-211-9696-1342-13570-58-202 58-412 259-471 202-58 412 58 471 259 1021 3496 1229 7886 1334 12080 1743-709 2444-2534 2682-4525-22-86-14-180 29-264 171-1727 16-3546-95-4846-28-328-53-623-72-914z m4449-9050c-132 0-238-107-238-238 0-132 107-238 238-238l1137 0 0-1137c0-132 107-238 238-238 132 0 238 107 238 238l0 1137 1137 0c132 0 238 107 238 238 0 132-107 238-238 238l-1137 0 0 1137c0 132-107 238-238 238-132 0-238-107-238-238l0-1137-1137 0z m-7581-11719c-132 0-238-107-238-238 0-132 107-238 238-238l1452 0 0-1452c0-132 107-238 238-238 132 0 238 107 238 238l0 1452 1452 0c132 0 238 107 238 238 0 132-107 238-238 238l-1452 0 0 1452c0 132-107 238-238 238-132 0-238-107-238-238l0-1452-1452 0z m12565 883l483 1644 1441 545c123 46 185 183 139 306-25 67-77 115-139 139l-1441 545-484 1647c-37 126-169 198-295 161-81-24-140-88-162-163l-483-1644-1441-545c-123-46-185-183-139-306 25-67 77-115 139-139l1441-545 484-1647c37-126 169-198 295-161 81 24 140 88 162 163z m60 1892l-289-984-288 980c-20 71-72 131-145 159l-963 364 963 364c67 25 122 81 144 156l289 984 288-980c20-71 72-131 145-159l963-364-963-364c-67-25-122-81-144-156z m-4273-7744l465 1606 1384 531c122 47 184 184 137 306-25 66-76 114-137 137l-1384 531-466 1609c-37 126-168 199-294 162-82-24-141-88-163-164l-465-1606-1384-531c-122-47-184-184-137-306 25-66 76-114 137-137l1384-531 466-1609c37-126 168-199 294-162 82 24 141 88 163 164z m41 1852l-270-933-270 933 0 0c-20 69-71 128-143 156l-918 352 908 348c72 24 131 81 153 159l270 933 270-933 0 0c20-69 71-128 143-156l918-352-908-348c-72-24-131-81-153-159z m-15506 15367c-77-106-54-254 52-331 106-77 254-54 332 52l719 985c10 14 19 29 26 45l0 0c54 123 65 246 43 361 4-1 8-3 13-4 145-39 296-61 451-65-10-56-21-113-31-171-128-709-267-1480-1053-2195-324 221-576 512-768 846-274 475-431 1041-501 1621-94 780-32 1572 112 2207 157-688 387-1279 753-1680-105-43-167-156-142-271 28-128 155-209 283-181 87 19 176 7 252-26 46-20 86-48 116-80 25-26 41-55 48-83 5-21 4-45-4-70l-700-959z m-7091 9214c-169 29-350 30-526 31-115 1-228 2-329 11-131 12-247-84-259-214-12-131 84-247 214-259 118-11 244-12 372-13 181-1 367-2 512-38 205-50 334-217 216-728-117 38-246 63-382 81-88 12-181 20-275 29-162 15-328 30-472 65-128 31-256-48-287-175-31-128 48-256 175-287 176-43 360-60 541-77 86-8 172-16 256-27 281-37 510-122 508-473l-8-17c-240-490-589-841-1598-361-446 389-669 843-741 1296-67 418-8 840 122 1211 129 368 325 680 535 885 97 95 189 162 267 193 350 22 704 25 910-122 185-132 294-425 248-1013z m-630 1899l673 29099 200 0-577-29140c-97 21-195 34-295 41z m190-5381c-102-5146-206-10292-306-15437-10-530-14-755-235-1274-275-647-583-805-884-711-406 128-860 589-1260 1073-490 593-485 601-291 961 47 87 102 189 185 354 631 1260 798 2807 954 4262 149 1386 289 2683 808 3435 570 826 578 1225 599 2274 2 78 3 160 5 247l112 4847c111-20 216-30 313-31z m765 235c34 25 67 52 99 81 316-324 607-633 877-954 319-380 604-775 858-1234 67-121 127-223 180-312 195-329 257-435 72-907-474-1211-36-3154 326-4757 251-1110 460-2037 333-2172-60-63-475 260-1496 1225-84 79-194 112-300 101-383-27-617-362-690-851-50-336-27-771 79-1206 106-436 297-879 582-1234 512-639 1297-996 2394-574 27 10 51 23 74 38l0-1c765 508 1337 1071 1908 1634 1050 1034 2101 2068 4391 2659 19 3 37 8 55 14 41 10 82 21 124 31l0-1c1439 285 1309 1572 1179 2859-44 436-88 871-55 1229 1028 369 1548 1319 2067 2270 192 352 384 704 599 1011 678-555 962-1719 1202-2707 270-1105 496-2032 1245-2094 79-1301 286-2530 1010-3122 117-95 168-182 170-250 1-25-7-50-21-72-19-29-49-55-89-76-118-61-295-68-507 14-196 76-416-22-492-218-76-196 22-416 218-492 119-46 235-77 347-94-10-7-20-14-30-21-143-93-315-132-478-154-82-7-162-40-226-101-90-84-170-185-222-297-52-112-77-234-62-362 15-131 71-258 178-373 78-83 183-159 323-224l0 0c83-39 181-47 275-17 196 63 402 89 594 113 630 78 1144 142 1495 1066 74 197-25 416-222 490-197 74-416-25-490-222-167-439-431-517-756-562l8 5c275 180 514 465 657 934 4 13 7 26 10 39 42 44 79 90 111 140 95 148 145 319 140 501-7 280-143 573-447 822-691 565-739 2283-782 3822-5 189-10 375-16 545 44 184 94 365 148 543 143-1815 721-2953 1298-4090 311-613 622-1225 853-1939l15-47c8-23 14-44 21-64 3-12 7-24 11-35 50-163 43-205-17-448-410-1682-1096-1661-1782-1639-511 16-1021 32-1519-331-170-123-207-361-83-530 123-170 361-207 530-83 287 209 668 197 1048 185 670-21 1340-42 1876 645 18-275-2-609-23-943-17-273-34-547-30-800-93-485-127-901 13-1217 85-193 310-280 502-195 193 85 280 310 195 502-96 218 28 756 173 1386 275 1192 614 2661-183 3777l-8 23-15 47c-250 775-574 1412-897 2049-719 1415-1437 2831-1202 5726 110 239 221 476 332 712 1277 2709 2474 5250-133 9343-259 2346-1114 4559-3416 5342-6 2-13 4-19 6 7 295 13 590 19 882 109 4992 206 9473 1540 11334 249 348 517 644 757 910 410 454 749 830 838 1239 202 932-835 1615-5044 2527-54 12-107 11-158 1-677-91-1329-259-1980-428-1246-322-2492-644-3804-360-507 191-1038 599-1589 1023-1258 966-2614 2008-4424 1305l45 2281c4 210-163 383-372 387l-7 0 0 1-959 0c-211 0-381-171-381-381 0-8 0-16 1-24l-76-3293c-42-16-82-40-118-72-386-348-609-688-909-1147-114-175-240-367-360-541-43-63-102-107-169-136-86-36-190-49-301-41-3473 233-4150-135-4212-1048-14-206 16-421 49-663 105-766 257-1872-1319-3266-56-50-101-110-134-178-67-137-102-343-89-540 13-208 79-426 215-580 57-64 123-116 198-153 290-141 762-285 1356-466l108-33c-506-753-992-1639-1137-2536-182-1126 155-2233 1585-3074 46-27 96-43 146-49l0-1c773-96 1534 63 2296 222 846 177 1692 354 2466 124l-32-1370c-289-227-552-469-792-723-1646-1744-2259-4122-2280-6290-21-2170 559-4152 1290-5086 68-87 137-165 207-235-138-448-193-949-113-1453 113-707 488-1410 1269-1967 18-13 36-23 55-33l-116-5009c-2-86-4-169-5-247-18-882-25-1218-465-1857-630-912-779-2302-939-3787-150-1390-309-2868-877-4002-52-104-119-227-176-333-431-801-441-820 375-1807 476-576 1040-1132 1621-1315 686-216 1334 21 1810 1140 278 652 283 923 295 1560l311 15684z m-2702 4194c-618 846-1099 2598-1080 4546 20 2002 577 4188 2075 5774 70 74 141 146 214 217l-223-9628c-194-69-387-196-565-369-150-147-295-330-422-540z m1567 26013l-215-9319c-1856 1256-3937 1890-5331 2315-532 162-959 292-1213 411-8 23-14 63-17 110-4 56-1 106 7 138 1837 1648 1655 2977 1528 3900-28 201-52 378-43 511 26 389 568 529 3401 338 224-15 446 16 647 101 197 83 370 216 500 404 160 231 271 401 372 556 131 200 245 375 364 534z m-237-10238l-48-2056c-885 204-1762 21-2640-163-671-140-1342-280-1973-219-1033 636-1280 1443-1148 2257 134 830 644 1695 1147 2418 1385-445 3145-1105 4661-2237z m20920-31215c8 18 16 37 24 56-1-35-3-70-4-105-6 17-13 33-20 50z m-11203 29667c19-130 140-220 270-201 130 19 220 140 201 270-695 4742-3388 6528-6071 8308-490 325-980 650-1443 983-106 77-255 52-332-54-77-106-52-255 54-332 486-350 972-672 1458-994 2595-1721 5198-3448 5863-7980z m-2612-6004c696-734 1415-1689 2077-2835 759-1313 1442-2874 1928-4637 35-127 166-201 292-166 127 35 201 166 166 292-86 311-178 617-275 916l412 2252c528-925 780-2034 810-3183 35-1361-243-2775-746-4004-62 197-130 398-206 606-45 123-181 187-305 142-123-45-187-181-142-305 701-1924 770-3328 508-4293-118-437-304-780-528-1037-219-252-475-423-738-519-307-112-626-123-911-46-25 7-50 9-74 8-28 22-61 38-98 45-1228 255-1425 2316-1618 4322-21 224-43 447-66 667 152-267 304-495 451-700 4-6 8-11 12-16 100-139 197-266 290-389 533-700 912-1198 752-2628-14-131 80-248 210-263 131-14 248 80 263 210 180 1618-247 2179-847 2969-73 96-149 195-226 301 324 1561 279 2956 4 4223-200 917-521 1766-913 2559 318-332 635-772 915-1291 454-841 801-1882 884-3000 9-131 123-230 254-221 131 9 230 123 221 254-86 1163-440 2246-906 3129-284 2155-926 3989-1568 5823-94 269-188 538-282 810z m3463-14400c-75-107-49-255 59-331 107-75 255-49 331 59 546 783 432 1554 321 2301-17 116-34 230-43 302-17 130-136 222-266 205-130-17-222-136-205-266 17-131 30-220 43-309 97-656 198-1334-239-1960z" fill="#f500bd" fill-rule="nonzero" data-fill-palette-color="accent"></path></g></svg></g></svg></g></svg></g></svg></g></svg></g><g></g></svg></g><defs></defs></svg><rect width="60.84274630595214" height="95.481" fill="none" stroke="none" visibility="hidden"></rect></g></svg></g></svg>